<?xml version="1.0" encoding="UTF-8"?>
<!-- Generated by Pixelmator Pro 3.6.14 -->
<svg width="1301" height="1427" viewBox="0 0 1301 1427" xmlns="http://www.w3.org/2000/svg">
    <g id="Group-copy-2">
        <g id="Wireframe3">
            <g id="Path">
                <path id="path1" fill="#020050" fill-rule="evenodd" stroke="none" d="M 911.5 1310.060059 C 830.316406 1368.391113 726.126953 1387.696289 617.78418 1381.407227 C 425.730469 1370.257813 220.949219 1277.208008 115.030273 1183.161133 C 55.295898 1130.12207 28.097656 1075.900879 21.595703 1028.874023 C 13.407227 969.645996 37.415039 920.647949 74.233398 894.176758 C 112.208008 866.874023 164.177734 862.581055 211.686523 895.637695 C 219.501953 901.076172 230.430664 910.050781 242.076172 920.116211 C 234.212891 870.750977 241.154297 814.383789 273.730469 767.993164 C 238.182617 743.262207 200.385742 703.549805 182.283203 673.133789 C 148.364258 616.14502 117.616211 552.78418 148.714844 477.026855 C 154.333984 463.34082 161.896484 452.296875 170.393555 443.490234 C 167.06543 437.024902 164.574219 429.341797 163.186523 420.592773 C 156.983398 381.464844 171.537109 319.883789 198.664063 294.035156 L 207.205078 288.317871 C 210.327148 286.894043 214.022461 285.807129 218.235352 285.091797 C 226.074219 283.760742 237.448242 284.545898 248.606445 280.461914 C 261.984375 275.564941 274.154297 262.995117 278.166016 253.704102 C 313.151367 172.686035 365.911133 141.370117 407.106445 132.579102 C 412.557617 113.779785 425.890625 81.48291 456.912109 56.080078 C 502.922852 18.401855 588.763672 -1.333008 714.367188 53.124023 C 762.416992 73.957031 833.129883 108.851074 893.398438 105.315918 C 913.322266 104.147949 927.740234 105.942871 937.548828 109.228027 C 947.987305 112.724121 954.731445 118.166992 958.973633 124.061035 C 968.766602 137.662109 967.515625 158.571777 949.50293 179.861816 C 937.464844 194.089844 917.453125 209.645996 893.858398 222.920898 C 990.149414 250.71582 1028.066406 303.707031 1077.490234 375.313965 C 1107.735352 419.132813 1132.724609 491.555176 1146.558594 556.743164 L 1146.697266 557.455078 L 1146.722656 557.60498 C 1150.077148 557.329102 1153.467773 557.187988 1156.891602 557.187988 C 1224.430664 557.187988 1279.263672 612.02002 1279.263672 679.559082 C 1279.263672 747.098145 1224.430664 801.931152 1156.891602 801.931152 C 1089.352539 801.931152 1034.521484 747.098145 1034.521484 679.559082 C 1034.521484 674.881836 1034.78418 670.266113 1035.294922 665.725098 C 1032.000977 662.473145 1028.75293 659.151855 1025.576172 655.793945 C 1007.607422 636.797852 991.986328 616.601074 983.107422 601.006836 C 978.304688 593.316895 970.717773 587.771973 961.944336 585.541992 C 860.351563 559.838867 811.073242 519.980957 787.129883 486.14209 C 783.994141 492.216797 781.069336 497.239258 778.944336 500.71875 C 778.78125 507.086914 779.013672 518.71875 782.107422 528.706055 C 782.748047 530.776855 783.512695 532.769043 784.536133 534.518066 C 785.087891 535.460938 785.493164 536.64502 786.703125 536.668945 C 806.391602 537.060059 848.323242 551.051758 894.072266 583.144043 C 969.916992 636.348145 1059.079102 738.975098 1070.515625 902.896973 C 1114.919922 876.907227 1173.463867 846.128906 1184.628906 857.293945 C 1203.053711 875.71875 1107.24707 1023.180176 1107.24707 1023.180176 C 1107.24707 1023.180176 1279.263672 1059.705078 1279.263672 1085.762695 C 1279.263672 1111.821289 1107.24707 1148.345703 1107.24707 1148.345703 C 1107.24707 1148.345703 1203.053711 1295.807129 1184.628906 1314.231934 C 1166.203125 1332.658203 1018.742188 1236.851074 1018.742188 1236.851074 C 1018.742188 1236.851074 982.216797 1408.867188 956.15918 1408.867188 C 941.833984 1408.867188 924.34375 1356.875977 911.5 1310.060059 Z M 1106.789063 567.896973 L 1106.257813 564.876953 C 1093.558594 505.204102 1071.328125 438.757813 1043.65625 398.666992 C 991.044922 322.442871 953.680664 269.019043 823.981445 250.201172 C 823.21582 250.101074 822.383789 249.977051 821.460938 249.84082 C 821.359375 249.826172 821.256836 249.811035 821.154297 249.794922 C 820.019531 249.62793 818.75293 249.442871 817.30957 249.265137 C 749.444336 240.880859 745.736328 255.015137 723.353516 269.811035 C 713.982422 276.006836 711.898438 271.691895 711.898438 271.691895 C 711.898438 271.691895 680.572266 220.621094 645.417969 198.312988 C 632.712891 190.250977 622.361328 187.743164 620.220703 187.224121 C 609.287109 184.575195 610.685547 176.446777 610.891602 175.25 C 612.576172 165.464844 622.829102 167.021973 624.048828 167.207031 C 668.387695 173.939941 707.321289 215.041016 723.901367 234.975098 C 736.673828 225.763184 756.884766 206.022949 822.038086 208.814941 C 853.556641 200.082031 885.066406 182.855957 905.69043 165.455078 C 912.060547 160.080078 918.193359 152.147949 921.569336 147.464844 C 920.970703 147.312012 920.368164 147.176758 919.793945 147.078125 C 913.610352 146.00293 905.681641 145.777832 895.804688 146.356934 C 829.413086 150.25 750.946289 113.791992 698.013672 90.842773 C 593.092773 45.353027 521.392578 56.414063 482.958984 87.887207 C 449.612305 115.193848 444.383789 153.365234 444.383789 153.365234 C 443.154297 162.895996 435.485352 170.303223 425.917969 171.201172 C 394.115234 174.186035 350.516602 196.811035 319.898438 261.200195 C 320.222656 260.619141 320.545898 260.03418 320.868164 259.445801 C 332.922852 237.35791 350.581055 253.298828 341.233398 277.772949 L 328.294922 305.957031 L 345.235352 330.138184 C 350.053711 334.957031 350.051758 342.771973 345.233398 347.589844 C 340.414063 352.40918 332.599609 352.411133 327.78125 347.592773 L 303.599609 330.651855 L 275.416016 343.589844 C 248.274414 355.397949 230.649414 332.277832 252.800781 321.90625 C 241.378906 324.490234 228.886719 325.529785 225.057617 325.804199 C 209.836914 342.379883 202.360352 375.660156 202.78125 401.662109 C 202.889648 408.441895 203.572266 414.731934 205.039063 420.041992 C 205.199219 420.624023 205.419922 421.254883 205.670898 421.891113 C 274.356445 401.612793 333.946289 446.016113 355.775391 516.648926 C 370.750977 565.106934 422.663086 600.48291 464.268555 601.98291 C 476.493164 602.422852 535.952148 604.565918 615.750977 581.295898 C 617.308594 580.84082 627.139648 577.974121 635.071289 575.101074 C 646.28125 571.039063 649.487305 578.912109 649.960938 580.075195 C 651.499023 583.852051 651.474609 584.054199 649.876953 587.816895 C 647.873047 592.535156 647.164063 592.138184 642.40918 594.077148 C 620.601563 602.967773 545.75 628.437012 467.673828 629.35498 C 461.189453 629.431152 420.509766 631.378906 374.869141 596.348145 C 333.53125 564.621094 322.793945 524.977051 321.498047 521.605957 C 308.385742 487.500977 269.235352 437.440918 209.882813 463.760742 C 200.779297 469.856934 192.268555 479.187988 186.74707 492.63916 C 161.358398 554.48584 189.918945 605.583008 217.611328 652.10791 C 236.248047 683.421875 279.171875 726.333008 313.910156 744.538086 C 319.583008 747.512207 323.545898 752.959961 324.62793 759.273926 C 325.709961 765.586914 323.787109 772.043945 319.426758 776.736816 C 261.441406 839.145996 275.080078 934.038086 308.029297 980.925781 C 314.109375 989.579102 312.631836 1001.432129 304.614258 1008.328125 C 296.59668 1015.224121 284.65625 1014.912109 277.009766 1007.605957 C 277.009766 1007.605957 214.34082 947.567871 188.207031 929.383789 C 157.103516 907.742188 123.092773 909.681152 98.232422 927.556152 C 72.211914 946.26416 56.532227 981.384766 62.320313 1023.243164 C 67.796875 1062.858887 92.005859 1107.739258 142.326172 1152.418945 C 242.961914 1241.774902 437.692383 1329.771973 620.166992 1340.365234 C 724.454102 1346.418945 824.860352 1326.702148 900.175781 1265.76416 C 896.052734 1248.512695 893.577148 1236.851074 893.577148 1236.851074 C 893.577148 1236.851074 746.116211 1332.658203 727.69043 1314.231934 C 709.264648 1295.807129 805.072266 1148.345703 805.072266 1148.345703 C 805.072266 1148.345703 633.054688 1111.821289 633.054688 1085.762695 C 633.054688 1059.705078 805.072266 1023.180176 805.072266 1023.180176 C 805.072266 1023.180176 709.264648 875.71875 727.69043 857.293945 C 746.116211 838.868164 893.577148 934.674805 893.577148 934.674805 C 893.577148 934.674805 930.101563 762.65918 956.15918 762.65918 C 982.216797 762.65918 1018.742188 934.674805 1018.742188 934.674805 C 1018.742188 934.674805 1023.035156 931.885742 1030.248047 927.350098 C 1026.072266 766.964844 942.411133 667.27002 870.462891 616.799805 C 834.040039 591.25 801.563477 578.083008 785.887695 577.771973 C 763.25293 577.323242 749.302734 561.75293 742.835938 540.867188 C 736.165039 519.327148 738.203125 492.621094 738.203125 492.621094 C 738.498047 488.994141 739.75 485.508789 741.832031 482.523926 C 741.832031 482.523926 762.549805 453.74707 764.292969 427.020996 C 764.530273 423.390137 764.833008 419.89209 765.541992 412.418945 C 768.131836 385.132813 764.874023 354.814941 751.65625 335.435059 C 749.136719 331.742188 748.87207 323.131836 751.928711 320.37793 C 754.945313 317.662109 755.148438 317.633789 759.205078 317.856934 C 767.866211 318.333008 780.043945 337.542969 781.375 339.643066 C 802.71582 373.308105 805.364258 417.956055 805.461914 422.891113 L 805.480469 422.873047 C 805.499023 422.415039 805.50293 421.955078 805.491211 421.493164 C 805.513672 422.37793 805.523438 423.266113 805.519531 424.144043 C 806.397461 438.969727 821.407227 507.580078 972.027344 545.686035 L 972.049805 545.691895 C 991.393555 550.608887 1008.042969 562.910156 1018.424805 579.957031 L 1018.764648 580.536133 C 1026.289063 593.850098 1039.933594 611.147949 1055.442383 627.542969 C 1067.34375 640.124023 1080.362305 652.161133 1092.749023 661.378906 C 1100.28125 666.983887 1107.474609 671.53125 1113.946289 674.164063 C 1114.433594 674.361816 1114.990234 674.552734 1115.56543 674.72998 C 1116.188477 671.957031 1116.87207 668.425781 1117.112305 665.410156 C 1118.157227 652.296875 1117.283203 635.146973 1114.902344 615.698242 C 1110.861328 618.362793 1107.086914 621.399902 1103.628906 624.760742 C 1088.476563 619.008789 1079.867188 605.989258 1075.695313 588.037109 C 1084.920898 579.84375 1095.392578 573.023926 1106.789063 567.896973 Z M 1084.980469 705.498047 C 1095.611328 734.931152 1123.811523 755.992188 1156.891602 755.992188 C 1199.077148 755.992188 1233.325195 721.744141 1233.325195 679.559082 C 1233.325195 637.375 1199.077148 603.125977 1156.891602 603.125977 C 1156.165039 603.125977 1155.441406 603.135742 1154.71875 603.15625 L 1154.806641 603.717773 C 1159.84375 640.830078 1159.686523 671.856934 1154.625 688.957031 C 1152.486328 696.180176 1149.419922 701.731934 1146.030273 705.709961 L 1140.558594 710.816895 L 1133.317383 714.717773 C 1125.46875 717.615234 1115.733398 717.873047 1104.739258 714.495117 C 1098.698242 712.63916 1092.016602 709.575195 1084.980469 705.498047 Z M 383.349609 427.544922 L 368.938477 387.978027 C 364.079102 379.561035 366.966797 368.795898 375.383789 363.936035 C 383.800781 359.077148 394.568359 361.958008 399.426758 370.375 L 426.487305 402.640137 L 466.053711 388.228027 C 474.470703 383.368164 485.236328 386.255859 490.095703 394.672852 C 494.956055 403.089844 492.074219 413.856934 483.657227 418.716797 L 451.391602 445.776855 L 465.803711 485.342773 C 470.664063 493.760742 467.776367 504.525879 459.359375 509.384766 C 450.942383 514.245117 440.174805 511.362793 435.31543 502.945801 L 408.254883 470.682129 L 368.689453 485.09375 C 360.272461 489.953125 349.505859 487.064941 344.647461 478.647949 C 339.787109 470.230957 342.668945 459.463867 351.085938 454.60498 L 383.349609 427.544922 Z"/>
                <path id="path2" fill="#ffffff" fill-rule="evenodd" stroke="none" d="M 616.856873 1397.380371 C 727.250671 1403.788452 824.879456 1383.94873 902.152283 1335.590698 C 907.657288 1354.055298 913.119141 1370.105957 918.48114 1383.116333 C 922.942566 1393.941406 927.308655 1402.604614 931.760315 1409.078125 C 934.533508 1413.11084 937.413086 1416.415527 940.603882 1418.991333 C 945.13916 1422.652588 950.323303 1424.867188 956.15918 1424.867188 C 964.852783 1424.867188 971.651428 1420.324829 977.582947 1413.061646 C 981.52417 1408.235596 985.274963 1401.87793 989.054382 1393.948364 C 996.685974 1377.936646 1004.552063 1355.2146 1012.597046 1327.288208 C 1018.094604 1308.204712 1023.35144 1287.812134 1028.19458 1267.427002 C 1028.592773 1265.751099 1028.981445 1264.103149 1029.360352 1262.485474 L 1030.043579 1262.90918 C 1045.282227 1272.35437 1061.084351 1281.800903 1076.64624 1290.633423 C 1082.935913 1294.203247 1089.072876 1297.606812 1095.026978 1300.820679 C 1115.993164 1312.137695 1134.076538 1320.785156 1148.630859 1326.151978 C 1157.40332 1329.386719 1164.949951 1331.457275 1171.444214 1332.236206 C 1181.233887 1333.4104 1189.566772 1331.921631 1195.942749 1325.545532 C 1202.318726 1319.169556 1203.807129 1310.83667 1202.63269 1301.046997 C 1201.853638 1294.552856 1199.782959 1287.006348 1196.548096 1278.234009 C 1191.181152 1263.679688 1182.533447 1245.596436 1171.216431 1224.630127 C 1168.002686 1218.676392 1164.599243 1212.539795 1161.029663 1206.25061 C 1152.197144 1190.688599 1142.750488 1174.886353 1133.305298 1159.647339 L 1132.88147 1158.963989 C 1134.499146 1158.585083 1136.147095 1158.196533 1137.822998 1157.79834 C 1158.20813 1152.9552 1178.60083 1147.698486 1197.684448 1142.200928 C 1225.614136 1134.155029 1248.338135 1126.288208 1264.35022 1118.65564 C 1272.278442 1114.876587 1278.63501 1111.125977 1283.460205 1107.184937 C 1290.722168 1101.253784 1295.263672 1094.455444 1295.263672 1085.762695 C 1295.263672 1077.069214 1290.721436 1070.27063 1283.458496 1064.339233 C 1278.632568 1060.398071 1272.275146 1056.647461 1264.345825 1052.868042 C 1248.333984 1045.236328 1225.611572 1037.370117 1197.684448 1029.325073 C 1178.60083 1023.827515 1158.208252 1018.57074 1137.822998 1013.727661 C 1136.147095 1013.329468 1134.499146 1012.940857 1132.88147 1012.561951 L 1133.305298 1011.87854 C 1142.750488 996.639587 1152.197144 980.837341 1161.029663 965.27533 C 1164.599243 958.986084 1168.002686 952.849548 1171.216431 946.895752 C 1182.533447 925.929504 1191.181152 907.84613 1196.548096 893.29187 C 1199.782959 884.519531 1201.853638 876.972961 1202.63269 870.478882 C 1203.807129 860.689209 1202.318726 852.356323 1195.942627 845.980225 C 1191.459351 841.497009 1185.732056 839.421631 1179.361938 839.014465 C 1174.95813 838.732971 1170.181396 839.25415 1164.86438 840.434814 C 1156.243164 842.349182 1145.824341 846.106445 1133.563965 851.530273 C 1119.157593 857.903442 1102.449585 866.469177 1084.09729 876.697754 C 1080.003296 842.703247 1072.522583 810.510376 1061.931763 780.171143 C 1086.718384 803.575989 1120.140137 817.931152 1156.891602 817.931152 C 1233.267212 817.931152 1295.263672 755.934692 1295.263672 679.559082 C 1295.263672 604.059448 1234.681152 542.611816 1159.51355 541.212402 C 1143.772827 472.62973 1118.647827 406.776367 1090.658081 366.225098 C 1073.653076 341.587738 1064.597534 328.880341 1054.127197 315.391327 C 1040.630615 298.003479 1027.813477 283.642151 1014.127075 270.954254 C 990.078125 248.660004 963.128723 231.496124 930.399658 218.472046 C 943.021851 209.239639 953.776733 199.581787 961.717529 190.196381 C 983.111938 164.909348 987.174194 135.845108 971.958069 114.712036 C 965.281128 105.435143 955.427307 98.342415 942.630188 94.056351 C 929.854919 89.77758 913.026733 88.137802 892.462097 89.343338 C 876.284912 90.292236 858.178345 88.190643 838.068787 83.290901 C 815.760681 77.855469 792.390198 69.458641 763.488525 57.161484 C 753.636963 52.969818 722.884583 39.377773 720.731873 38.444408 C 659.423035 11.863172 603.664185 0.85222 554.737122 4.086167 C 511.337341 6.954773 474.420868 21.061886 446.774963 43.701122 C 431.00293 56.616508 418.383423 71.885712 408.58197 88.774895 C 402.722473 98.871529 398.114899 109.105988 394.595184 119.182907 C 372.20462 125.403381 350.203857 136.868546 330.023834 153.798965 C 303.386017 176.147263 280.809204 207.223755 263.477051 247.361084 C 260.808807 253.540588 251.411743 262.39679 243.106552 265.43689 C 242.69252 265.58844 242.269348 265.732788 241.837021 265.870056 C 237.609238 267.212433 234.155106 267.662048 225.086136 268.311371 C 220.625153 268.630768 218.259079 268.858734 215.556854 269.317596 C 210.057114 270.251434 205.034119 271.722626 200.566055 273.760284 C 199.779465 274.119019 199.023239 274.540894 198.30481 275.02182 L 189.763794 280.739105 C 189.003738 281.247864 188.288712 281.820862 187.626572 282.451813 C 157.593063 311.070038 140.070038 376.963989 147.383881 423.098022 C 148.357285 429.235107 149.815979 435.058533 151.737198 440.500488 C 144.565567 449.452362 138.568146 459.61377 133.913803 470.949921 C 118.083572 509.512909 116.006508 547.316345 125.587433 585.968079 C 133.033691 616.008057 146.138 643.68811 168.53421 681.317017 C 185.935715 710.555115 219.135178 746.367493 252.151993 771.968994 C 232.386566 805.51062 222.880829 844.274902 223.09227 884.113525 C 222.311996 883.549561 221.55629 883.013123 220.825424 882.504517 C 170.183884 847.268127 110.83445 848.155457 64.893311 881.185913 C 20.663628 912.985596 -2.80284 969.227356 5.746458 1031.065186 C 13.453672 1086.809448 46.238857 1143.477173 104.40696 1195.125488 C 159.569122 1244.104736 239.217514 1291.6073 328.015442 1328.165894 C 423.06189 1367.296997 523.409729 1391.955444 616.856873 1397.380371 Z M 617.78418 1381.407227 C 726.126953 1387.696289 830.316406 1368.391113 911.5 1310.060059 C 924.34375 1356.875977 941.833984 1408.867188 956.15918 1408.867188 C 982.216797 1408.867188 1018.742188 1236.851074 1018.742188 1236.851074 C 1018.742188 1236.851074 1166.203125 1332.658203 1184.628906 1314.231934 C 1203.053711 1295.807129 1107.24707 1148.345703 1107.24707 1148.345703 C 1107.24707 1148.345703 1279.263672 1111.821289 1279.263672 1085.762695 C 1279.263672 1059.705078 1107.24707 1023.180176 1107.24707 1023.180176 C 1107.24707 1023.180176 1203.053711 875.71875 1184.628906 857.293945 C 1173.463867 846.128906 1114.919922 876.907227 1070.515625 902.896973 C 1059.079102 738.975098 969.916992 636.348145 894.072266 583.144043 C 848.323242 551.051758 806.391602 537.060059 786.703125 536.668945 C 785.493164 536.64502 785.087891 535.460938 784.536133 534.518066 C 783.512695 532.769043 782.748047 530.776855 782.107422 528.706055 C 779.013672 518.71875 778.78125 507.086914 778.944336 500.71875 C 781.069336 497.239258 783.994141 492.216797 787.129883 486.14209 C 811.073242 519.980957 860.351563 559.838867 961.944336 585.541992 C 970.717773 587.771973 978.304688 593.316895 983.107422 601.006836 C 991.986328 616.601074 1007.607422 636.797852 1025.576172 655.793945 C 1028.75293 659.151855 1032.000977 662.473145 1035.294922 665.725098 C 1034.78418 670.266113 1034.521484 674.881836 1034.521484 679.559082 C 1034.521484 747.098145 1089.352539 801.931152 1156.891602 801.931152 C 1224.430664 801.931152 1279.263672 747.098145 1279.263672 679.559082 C 1279.263672 612.02002 1224.430664 557.187988 1156.891602 557.187988 C 1153.467773 557.187988 1150.077148 557.329102 1146.722656 557.60498 L 1146.697266 557.455078 L 1146.558594 556.743164 C 1132.724609 491.555176 1107.735352 419.132813 1077.490234 375.313965 C 1028.066406 303.707031 990.149414 250.71582 893.858398 222.920898 C 917.453125 209.645996 937.464844 194.089844 949.50293 179.861816 C 967.515625 158.571777 968.766602 137.662109 958.973633 124.061035 C 954.731445 118.166992 947.987305 112.724121 937.548828 109.228027 C 927.740234 105.942871 913.322266 104.147949 893.398438 105.315918 C 839.552246 108.474358 777.369141 80.957451 730.460144 60.199589 C 724.865173 57.72374 719.487488 55.344048 714.367188 53.124023 C 588.763672 -1.333008 502.922852 18.401855 456.912109 56.080078 C 425.890625 81.48291 412.557617 113.779785 407.106445 132.579102 C 365.911133 141.370117 313.151367 172.686035 278.166016 253.704102 C 274.154297 262.995117 261.984375 275.564941 248.606445 280.461914 C 237.448242 284.545898 226.074219 283.760742 218.235352 285.091797 C 214.022461 285.807129 210.327148 286.894043 207.205078 288.317871 L 198.664063 294.035156 C 171.537109 319.883789 156.983398 381.464844 163.186523 420.592773 C 164.574219 429.341797 167.06543 437.024902 170.393555 443.490234 C 161.896484 452.296875 154.333984 463.34082 148.714844 477.026855 C 117.616211 552.78418 148.364258 616.14502 182.283203 673.133789 C 200.385742 703.549805 238.182617 743.262207 273.730469 767.993164 C 241.154297 814.383789 234.212891 870.750977 242.076172 920.116211 C 230.430664 910.050781 219.501953 901.076172 211.686523 895.637695 C 164.177734 862.581055 112.208008 866.874023 74.233398 894.176758 C 37.415039 920.647949 13.407227 969.645996 21.595703 1028.874023 C 28.097656 1075.900879 55.295898 1130.12207 115.030273 1183.161133 C 220.949219 1277.208008 425.730469 1370.257813 617.78418 1381.407227 Z M 1106.257813 564.876953 L 1106.789063 567.896973 C 1095.392578 573.023926 1084.920898 579.84375 1075.695313 588.037109 C 1079.867188 605.989258 1088.476563 619.008789 1103.628906 624.760742 C 1107.086914 621.399902 1110.861328 618.362793 1114.902344 615.698242 C 1117.283203 635.146973 1118.157227 652.296875 1117.112305 665.410156 C 1116.87207 668.425781 1116.188477 671.957031 1115.56543 674.72998 C 1114.990234 674.552734 1114.433594 674.361816 1113.946289 674.164063 C 1107.474609 671.53125 1100.28125 666.983887 1092.749023 661.378906 C 1080.362305 652.161133 1067.34375 640.124023 1055.442383 627.542969 C 1039.933594 611.147949 1026.289063 593.850098 1018.764648 580.536133 L 1018.424805 579.957031 C 1008.042969 562.910156 991.393555 550.608887 972.049805 545.691895 L 972.027344 545.686035 C 821.407227 507.580078 806.397461 438.969727 805.519531 424.144043 C 805.523438 423.266113 805.513672 422.37793 805.491211 421.493164 C 805.50293 421.955078 805.499023 422.415039 805.480469 422.873047 L 805.461914 422.891113 C 805.364258 417.956055 802.71582 373.308105 781.375 339.643066 C 780.043945 337.542969 767.866211 318.333008 759.205078 317.856934 C 755.148438 317.633789 754.945313 317.662109 751.928711 320.37793 C 748.87207 323.131836 749.136719 331.742188 751.65625 335.435059 C 764.874023 354.814941 768.131836 385.132813 765.541992 412.418945 C 764.833008 419.89209 764.530273 423.390137 764.292969 427.020996 C 762.549805 453.74707 741.832031 482.523926 741.832031 482.523926 C 739.75 485.508789 738.498047 488.994141 738.203125 492.621094 C 738.203125 492.621094 736.165039 519.327148 742.835938 540.867188 C 749.302734 561.75293 763.25293 577.323242 785.887695 577.771973 C 801.563477 578.083008 834.040039 591.25 870.462891 616.799805 C 942.411133 667.27002 1026.072266 766.964844 1030.248047 927.350098 C 1023.035156 931.885742 1018.742188 934.674805 1018.742188 934.674805 C 1018.742188 934.674805 982.216797 762.65918 956.15918 762.65918 C 930.101563 762.65918 893.577148 934.674805 893.577148 934.674805 C 893.577148 934.674805 746.116211 838.868164 727.69043 857.293945 C 709.264648 875.71875 805.072266 1023.180176 805.072266 1023.180176 C 805.072266 1023.180176 633.054688 1059.705078 633.054688 1085.762695 C 633.054688 1111.821289 805.072266 1148.345703 805.072266 1148.345703 C 805.072266 1148.345703 709.264648 1295.807129 727.69043 1314.231934 C 746.116211 1332.658203 893.577148 1236.851074 893.577148 1236.851074 C 893.577148 1236.851074 896.052734 1248.512695 900.175781 1265.76416 C 824.860352 1326.702148 724.454102 1346.418945 620.166992 1340.365234 C 437.692383 1329.771973 242.961914 1241.774902 142.326172 1152.418945 C 92.005859 1107.739258 67.796875 1062.858887 62.320313 1023.243164 C 56.532227 981.384766 72.211914 946.26416 98.232422 927.556152 C 123.092773 909.681152 157.103516 907.742188 188.207031 929.383789 C 214.34082 947.567871 277.009766 1007.605957 277.009766 1007.605957 C 284.65625 1014.912109 296.59668 1015.224121 304.614258 1008.328125 C 312.631836 1001.432129 314.109375 989.579102 308.029297 980.925781 C 275.080078 934.038086 261.441406 839.145996 319.426758 776.736816 C 323.787109 772.043945 325.709961 765.586914 324.62793 759.273926 C 323.545898 752.959961 319.583008 747.512207 313.910156 744.538086 C 279.171875 726.333008 236.248047 683.421875 217.611328 652.10791 C 189.918945 605.583008 161.358398 554.48584 186.74707 492.63916 C 192.268555 479.187988 200.779297 469.856934 209.882813 463.760742 C 269.235352 437.440918 308.385742 487.500977 321.498047 521.605957 C 322.793945 524.977051 333.53125 564.621094 374.869141 596.348145 C 419.016724 630.232971 458.522614 629.519043 466.928711 629.367126 C 467.212982 629.361938 467.4617 629.357483 467.673828 629.35498 C 545.75 628.437012 620.601563 602.967773 642.40918 594.077148 C 647.164063 592.138184 647.873047 592.535156 649.876953 587.816895 C 651.474609 584.054199 651.499023 583.852051 649.960938 580.075195 C 649.487305 578.912109 646.28125 571.039063 635.071289 575.101074 C 627.139648 577.974121 617.308594 580.84082 615.750977 581.295898 C 535.962036 604.563049 476.507935 602.423401 464.273102 601.983093 L 464.268555 601.98291 C 422.663086 600.48291 370.750977 565.106934 355.775391 516.648926 C 333.946289 446.016113 274.356445 401.612793 205.670898 421.891113 C 205.419922 421.254883 205.199219 420.624023 205.039063 420.041992 C 203.572266 414.731934 202.889648 408.441895 202.78125 401.662109 C 202.360352 375.660156 209.836914 342.379883 225.057617 325.804199 C 228.886719 325.529785 241.378906 324.490234 252.800781 321.90625 C 230.649414 332.277832 248.274414 355.397949 275.416016 343.589844 L 303.599609 330.651855 L 327.78125 347.592773 C 332.599609 352.411133 340.414063 352.40918 345.233398 347.589844 C 350.051758 342.771973 350.053711 334.957031 345.235352 330.138184 L 328.294922 305.957031 L 341.233398 277.772949 C 350.581055 253.298828 332.922852 237.35791 320.868164 259.445801 C 320.545898 260.03418 320.222656 260.619141 319.898438 261.200195 C 350.516602 196.811035 394.115234 174.186035 425.917969 171.201172 C 435.485352 170.303223 443.154297 162.895996 444.383789 153.365234 C 444.383789 153.365234 449.612305 115.193848 482.958984 87.887207 C 521.392578 56.414063 593.092773 45.353027 698.013672 90.842773 C 701.358276 92.292847 704.80481 93.796852 708.343811 95.341202 C 760.814087 118.238167 833.608093 150.004013 895.804688 146.356934 C 905.681641 145.777832 913.610352 146.00293 919.793945 147.078125 C 920.368164 147.176758 920.970703 147.312012 921.569336 147.464844 C 918.193359 152.147949 912.060547 160.080078 905.69043 165.455078 C 885.066406 182.855957 853.556641 200.082031 822.038086 208.814941 C 762.12915 206.247681 740.218689 222.731277 727.14978 232.563217 C 726.005737 233.423889 724.929443 234.233597 723.901367 234.975098 C 707.321289 215.041016 668.387695 173.939941 624.048828 167.207031 C 622.825989 167.0215 612.575928 165.466339 610.891602 175.25 C 610.685547 176.446777 609.287109 184.575195 620.220703 187.224121 C 622.361328 187.743164 632.712891 190.250977 645.417969 198.312988 C 680.572266 220.621094 711.898438 271.691895 711.898438 271.691895 C 711.898438 271.691895 713.982422 276.006836 723.353516 269.811035 C 726.920288 267.453247 730.012878 265.112274 732.96637 262.876556 C 748.547241 251.082275 760.258911 242.216919 817.30957 249.265137 C 818.75293 249.442871 820.019531 249.62793 821.154297 249.794922 C 821.256836 249.811035 821.359375 249.826172 821.460938 249.84082 C 822.383789 249.977051 823.21582 250.101074 823.981445 250.201172 C 953.680664 269.019043 991.044922 322.442871 1043.65625 398.666992 C 1071.328125 438.757813 1093.558594 505.204102 1106.257813 564.876953 Z M 356.180298 283.481781 C 362.518036 266.888153 360.705017 249.73201 350.42746 239.858063 C 360.043823 225.802032 370.689117 214.536453 382.086426 205.957214 C 397.061676 194.684692 412.818787 188.500916 427.413086 187.131165 C 444.385315 185.538223 457.997711 172.427185 460.235474 155.539124 L 460.236053 155.536591 L 460.236298 155.534576 C 460.240814 155.508194 460.263763 155.367188 460.307892 155.118286 C 460.41745 154.500076 460.567322 153.748611 460.762207 152.875549 C 461.347931 150.251709 462.170685 147.273972 463.266144 144.035187 C 466.428253 134.686157 471.104095 125.320168 477.542542 116.628265 C 481.999176 110.611824 487.163879 105.123909 493.095886 100.266342 C 510.649597 85.891685 535.352905 77.363953 566.005676 76.49752 C 601.61853 75.490875 643.87323 84.808609 691.649109 105.522438 C 694.996033 106.973511 709.042664 113.103172 712.689697 114.685654 C 721.443054 118.483856 728.721191 121.590401 735.927673 124.585251 C 769.733582 138.634247 798.145813 148.528229 825.716003 154.988632 C 846.061157 159.756012 865.135193 162.386307 883.039124 162.628098 C 864.894714 175.213608 842.075256 186.322235 820.114136 192.727997 C 780.297363 191.334839 752.798401 197.671997 731.452637 210.255692 C 729.69342 211.292755 728.014404 212.346252 726.344299 213.454498 C 716.631042 202.864853 705.889099 192.674164 694.259827 183.551727 C 672.305115 166.329605 649.641785 154.909927 626.450928 151.388367 C 626.011719 151.321732 625.649109 151.271637 625.147217 151.21524 C 621.242859 150.776474 617.167786 150.926529 612.818298 152.230362 C 603.767761 154.94342 596.92395 162.077576 595.123535 172.535446 C 595.022766 173.120712 594.948792 173.613739 594.875732 174.296585 C 594.768677 175.296555 594.713684 176.336594 594.725769 177.430466 C 594.759033 180.436249 595.287842 183.503937 596.495178 186.564255 C 599.677002 194.629639 606.716858 200.415359 616.453308 202.774261 C 618.479736 203.26561 620.367676 203.823074 623.141846 204.88414 C 627.529236 206.562241 632.143311 208.838959 636.845398 211.822662 C 646.909973 218.209381 657.70697 228.086151 668.640259 240.477554 C 676.28418 249.140854 683.523254 258.484528 690.094421 267.83139 C 692.393616 271.101807 694.43988 274.131256 696.203186 276.836548 C 696.812134 277.770782 697.339661 278.593506 697.782166 279.294373 C 697.914551 279.504089 698.021606 279.674744 698.102783 279.804779 C 699.207764 281.712372 700.759644 283.555206 702.880127 285.165405 C 711.139099 291.436981 721.639771 290.124969 732.177795 283.157654 C 734.714478 281.480804 737.089417 279.786743 739.908386 277.67981 C 740.490906 277.244415 744.894409 273.913025 746.083435 273.03717 C 753.162842 267.822174 757.78125 265.564362 765.488037 264.108612 C 776.202698 262.084686 791.912842 262.249176 815.347778 265.144409 C 816.390137 265.272766 817.240906 265.391541 818.762451 265.615265 C 818.89801 265.636169 819.030884 265.655884 819.17688 265.676941 C 820.67804 265.898651 821.110229 265.961334 821.792114 266.051056 C 880.546509 274.58786 920.94043 290.431213 952.84375 315.489502 C 966.86969 326.506042 979.621155 339.519989 992.923767 356.00592 C 1003.466187 369.071106 1011.864746 380.773682 1030.488281 407.755737 C 1053.498047 441.092041 1074.820068 498.175507 1088.629395 559.194153 C 1080.21582 563.977905 1072.318848 569.63678 1065.070679 576.073975 C 1060.686523 579.96759 1058.783325 585.947449 1060.110596 591.658813 C 1065.61731 615.354675 1077.934204 632.12085 1097.950562 639.719238 C 1098.997314 640.116577 1100.068481 640.398315 1101.147339 640.567749 C 1101.294678 643.110962 1101.401489 645.563049 1101.467651 647.919006 C 1090.613159 639.741577 1078.657349 628.801208 1067.065674 616.547607 C 1052.064575 600.689209 1039.351318 584.443481 1032.694092 572.663879 C 1032.651245 572.588257 1032.60791 572.513 1032.563965 572.438049 L 1032.224121 571.858948 C 1032.180054 571.783813 1032.135376 571.709045 1032.090088 571.634705 C 1019.54895 551.042236 999.447327 536.174316 976.088562 530.210022 L 976.066101 530.204163 L 975.991516 530.184998 L 975.951599 530.174744 C 911.723633 513.925476 869.147522 491.278107 844.193542 465.137054 C 835.292053 455.812103 829.206543 446.583405 825.444519 437.757263 C 822.995178 432.010773 821.792297 427.056366 821.520264 423.612305 C 821.519043 422.776581 821.507507 421.932648 821.486084 421.087128 C 821.46582 420.288544 821.401428 419.521027 821.296326 418.784424 C 820.83197 411.273895 819.434509 400.192322 817.046143 388.766968 C 812.603699 367.515533 805.466919 347.763947 794.88855 331.076599 C 794.514832 330.486938 794.208069 330.009033 793.771667 329.344116 C 793.130615 328.367401 792.441101 327.345032 791.699707 326.279846 C 789.67926 323.376862 787.54248 320.538269 785.303223 317.86554 C 782.286255 314.264648 779.261108 311.171936 776.119263 308.6633 C 771.194519 304.730988 766.091003 302.211273 760.083191 301.881042 C 751.783386 301.4245 747.413635 302.913879 741.223389 308.486938 C 731.662415 317.100983 731.656677 334.511078 738.439392 344.452515 C 748.155029 358.69754 752.17865 383.881714 749.613586 410.907104 C 748.876099 418.680634 748.572449 422.22226 748.327026 425.977509 C 748.243347 427.260101 748.09668 428.589233 747.887329 429.963409 C 746.674927 437.922363 743.4505 446.944977 738.808044 456.236115 C 736.585083 460.684967 734.192383 464.887451 731.808289 468.685577 C 730.983459 469.999573 730.224792 471.160553 729.554688 472.150024 C 729.179443 472.70401 728.936157 473.051849 728.847168 473.175507 C 728.800659 473.240112 728.754639 473.305023 728.709106 473.3703 C 725.006958 478.677795 722.780212 484.87439 722.255737 491.324341 C 722.199768 492.055176 722.134155 493.137207 722.07135 494.59729 C 721.559326 506.496735 722.084106 519.943909 724.498535 533.025696 C 725.309631 537.420471 726.319336 541.619995 727.552124 545.600525 C 736.49115 574.470886 756.835083 593.199158 785.570557 593.76886 C 798.88324 594.032959 829.797546 607.818054 861.274536 629.898438 C 900.242371 657.233582 935.420898 694.214478 962.010437 739.022034 C 964.172119 742.664795 966.271851 746.349426 968.308655 750.075806 C 964.673523 747.882935 960.671631 746.65918 956.15918 746.65918 C 947.465881 746.65918 940.667419 751.201233 934.736145 758.463928 C 930.795044 763.289612 927.044434 769.64679 923.265137 777.575745 C 915.633301 793.587585 907.767029 816.310303 899.721802 844.237915 C 894.224304 863.321472 888.96759 883.713928 884.124512 904.09906 C 883.726379 905.774902 883.337708 907.422791 882.958862 909.040405 L 882.275696 908.616699 C 867.036926 899.171509 851.234802 889.725037 835.672852 880.892578 C 829.383301 877.322754 823.246399 873.919189 817.292297 870.705383 C 796.326111 859.388428 778.242798 850.740906 763.688477 845.374146 C 754.916077 842.139343 747.369446 840.068787 740.875244 839.289795 C 731.085632 838.11554 722.752747 839.604187 716.376709 845.980225 C 710.000671 852.355957 708.512024 860.688904 709.68634 870.478699 C 710.465332 876.972839 712.536011 884.51947 715.770874 893.29187 C 721.137756 907.84613 729.785461 925.929504 741.1026 946.895752 C 744.316406 952.84967 747.719849 958.986389 751.289551 965.275757 C 760.122131 980.837708 769.568787 996.639893 779.014038 1011.878723 L 779.437744 1012.561951 C 777.820007 1012.940796 776.172119 1013.329468 774.496216 1013.727661 C 754.110901 1018.57074 733.718201 1023.827515 714.634399 1029.325073 C 686.707153 1037.370117 663.984558 1045.236328 647.972656 1052.868042 C 640.043335 1056.647339 633.685852 1060.398071 628.859924 1064.339233 C 621.596924 1070.27063 617.054688 1077.069214 617.054688 1085.762695 C 617.054688 1094.455444 621.596252 1101.253784 628.858215 1107.184937 C 633.683472 1111.125977 640.040039 1114.876587 647.968262 1118.65564 C 663.980469 1126.288208 686.70459 1134.155151 714.634399 1142.200928 C 733.718201 1147.698486 754.110901 1152.9552 774.496216 1157.79834 C 776.172119 1158.196533 777.820068 1158.585083 779.437744 1158.963989 L 779.014038 1159.647217 C 769.568787 1174.885986 760.122131 1190.688232 751.289551 1206.250122 C 747.719849 1212.539551 744.316406 1218.676147 741.1026 1224.630127 C 729.785461 1245.596436 721.137756 1263.67981 715.770874 1278.234009 C 712.536011 1287.00647 710.465332 1294.553101 709.68634 1301.047241 C 708.70575 1309.221802 709.581909 1316.380493 713.610107 1322.232422 C 684.371582 1325.569214 653.454346 1326.270508 621.094177 1324.39209 C 535.906189 1319.446655 443.858124 1296.913452 356.630219 1261.125488 C 275.213409 1227.721802 202.507935 1184.458252 152.949478 1140.45459 C 108.147873 1100.675049 83.481712 1059.478394 78.169586 1021.052124 C 73.40773 986.615295 85.246529 956.598755 107.572495 940.547058 C 128.219345 925.701599 154.866547 925.677673 179.068756 942.517395 C 187.133438 948.128845 200.110428 958.927063 216.361389 973.373291 C 217.995422 974.825867 219.656235 976.309692 221.341858 977.822815 C 231.407196 986.85791 241.937195 996.554626 252.287872 1006.253357 C 255.91217 1009.649353 259.254059 1012.802002 262.233887 1015.629578 C 263.275055 1016.617554 264.195984 1017.493713 264.986725 1018.247864 C 265.26239 1018.510803 265.50177 1018.73938 265.703644 1018.932373 L 265.941162 1019.159607 C 279.554199 1032.166748 300.789429 1032.722046 315.047638 1020.458435 C 329.305756 1008.194885 331.932983 987.115417 321.120819 971.727295 C 305.79834 949.922974 295.872498 917.277222 295.627106 884.531982 C 295.349518 847.488647 307.087769 813.523621 331.148285 787.627441 C 338.902344 779.282104 342.322388 767.798767 340.39798 756.570984 C 338.47406 745.34436 331.427429 735.656372 321.339417 730.367493 C 290.606873 714.261658 249.35495 674.15979 231.360504 643.924988 C 212.416946 612.098633 203.445236 594.229187 197.672348 573.773499 C 190.415192 548.058533 191.195969 523.933899 201.548447 498.715271 C 205.268448 489.652802 210.820374 482.719849 217.685074 477.816376 C 238.971039 468.79657 257.291107 471.27771 273.718384 483.034973 C 287.915619 493.196167 299.958618 510.167755 306.563782 527.347717 C 306.512177 527.21344 306.53006 527.267029 306.574005 527.398926 L 306.574402 527.400085 L 306.59259 527.454712 C 306.599152 527.474487 306.917206 528.436279 307.04184 528.809509 C 307.558594 530.356873 308.064392 531.807617 308.664154 533.429932 C 310.384857 538.084473 312.439728 542.93573 314.963226 548.079163 C 322.009583 562.441162 331.448181 576.542419 343.799652 589.72644 C 350.241577 596.6026 357.34021 603.063904 365.127533 609.04071 C 386.228302 625.236267 407.989075 635.499695 429.604431 640.940491 C 444.109161 644.591431 455.451385 645.566284 466.775879 645.372314 C 466.943298 645.369446 467.134705 645.366028 467.429626 645.360718 C 467.631165 645.357117 467.761261 645.355042 467.861755 645.353882 C 504.243225 644.926147 542.25177 639.421509 579.926025 630.251953 C 606.984375 623.666199 632.186096 615.523499 648.449463 608.893188 C 648.747803 608.771545 651.390503 607.756348 652.295349 607.358276 C 656.377502 605.562561 659.585327 602.977661 662.099548 598.996582 C 663.042664 597.503357 663.791199 595.984802 664.60376 594.071533 C 667.864075 586.393127 667.927124 581.770325 664.779297 574.040588 C 664.631226 573.677002 664.51123 573.392761 664.331055 572.996033 C 664.06781 572.416382 663.775818 571.827942 663.444763 571.222961 C 662.568542 569.621948 661.5047 568.05896 660.196106 566.559814 C 653.095703 558.425354 641.901978 555.607849 629.620422 560.058228 C 628.327881 560.526428 626.912231 561.018738 625.39563 561.528748 C 622.565002 562.480774 619.50946 563.452759 616.394287 564.404968 C 615.238403 564.758301 614.135254 565.09021 613.088196 565.401062 C 612.391541 565.607849 611.966003 565.732849 611.263977 565.937927 C 578.807434 575.402527 547.594482 581.233093 518.166626 584.135193 C 498.053986 586.118652 481.90509 586.519714 467.608826 586.086609 C 466.715881 586.059509 466.064301 586.03717 464.843994 585.993286 C 447.613068 585.372009 427.319 577.432312 409.656464 564.140747 C 391.034363 550.127014 377.153931 531.636841 371.062042 511.924713 C 370.073334 508.725586 369.016388 505.580963 367.893463 502.492859 C 370.406311 501.875702 372.882416 500.957306 375.272217 499.724365 L 403.199005 489.552094 L 422.299164 512.324768 C 431.93219 527.324646 451.759644 532.249146 467.360352 523.240601 C 482.960419 514.235168 488.608582 494.602448 480.434113 478.759521 L 470.26178 450.83313 L 493.036255 431.732971 C 508.036102 422.099548 512.960083 402.272583 503.951538 386.671875 C 494.945313 371.072052 475.312683 365.423645 459.470581 373.597565 L 431.543427 383.77005 L 412.443451 360.996552 C 402.811798 345.996857 382.985199 341.073395 367.384613 350.079163 C 351.783234 359.087189 346.134735 378.718689 354.30777 394.560608 L 364.479797 422.48877 L 341.707092 441.588593 C 339.392029 443.075256 337.316956 444.804779 335.496094 446.724091 C 305.614624 412.656891 263.836365 395.467865 218.804031 402.550262 C 218.79364 402.173218 218.78537 401.791901 218.779205 401.406342 C 218.464188 381.945282 222.985001 360.762848 230.111618 346.732849 C 231.108673 348.509155 232.316574 350.194244 233.719849 351.756653 C 244.452484 363.706421 263.550568 366.200592 281.799011 358.261505 C 281.896851 358.218923 281.994263 358.175374 282.091248 358.130859 L 301.934967 349.021393 L 317.685699 360.055878 C 328.81488 369.959473 345.877533 369.573151 356.547119 358.903564 C 367.216156 348.235596 367.601746 331.172424 357.69873 320.04303 L 346.66449 304.292511 L 355.774384 284.448273 C 355.920197 284.130615 356.055573 283.808289 356.180298 283.481781 Z M 368.938477 387.978027 L 383.349609 427.544922 L 351.085938 454.60498 C 342.668945 459.463867 339.787109 470.230957 344.647461 478.647949 C 349.505859 487.064941 360.272461 489.953125 368.689453 485.09375 L 408.254883 470.682129 L 435.31543 502.945801 C 440.174805 511.362793 450.942383 514.245117 459.359375 509.384766 C 467.776367 504.525879 470.664063 493.760742 465.803711 485.342773 L 451.391602 445.776855 L 483.657227 418.716797 C 492.074219 413.856934 494.956055 403.089844 490.095703 394.672852 C 485.236328 386.255859 474.470703 383.368164 466.053711 388.228027 L 426.487305 402.640137 L 399.426758 370.375 C 394.568359 361.958008 383.800781 359.077148 375.383789 363.936035 C 366.966797 368.795898 364.079102 379.561035 368.938477 387.978027 Z M 1018.521484 679.559082 C 1018.521484 683.566833 1018.6922 687.535095 1019.026733 691.456787 C 995.418274 654.261963 966.788086 621.81604 935.182556 594.802734 C 942.565491 596.98468 950.17688 599.06897 958.019958 601.053284 C 962.6922 602.240784 966.767273 605.178711 969.393738 609.25708 C 979.033142 626.087402 995.358154 647.131531 1013.952515 666.789001 C 1015.537231 668.464111 1017.13324 670.124268 1018.737793 671.766541 C 1018.593811 674.354919 1018.521484 676.953125 1018.521484 679.559082 Z M 1156.891602 755.992188 C 1123.811523 755.992188 1095.611328 734.931152 1084.980469 705.498047 C 1092.016602 709.575195 1098.698242 712.63916 1104.739258 714.495117 C 1115.733398 717.873047 1125.46875 717.615234 1133.317383 714.717773 L 1140.558594 710.816895 L 1146.030273 705.709961 C 1149.419922 701.731934 1152.486328 696.180176 1154.625 688.957031 C 1159.686523 671.856934 1159.84375 640.830078 1154.806641 603.717773 L 1154.71875 603.15625 C 1155.441406 603.135742 1156.165039 603.125977 1156.891602 603.125977 C 1199.077148 603.125977 1233.325195 637.375 1233.325195 679.559082 C 1233.325195 721.744141 1199.077148 755.992188 1156.891602 755.992188 Z M 1169.966675 693.499451 C 1174.826294 677.081177 1175.736206 651.598877 1172.924561 621.280396 C 1198.504883 628.314331 1217.325195 651.760803 1217.325195 679.559082 C 1217.325195 712.907654 1190.240479 739.992188 1156.891602 739.992188 C 1146.405884 739.992188 1136.424683 737.289124 1127.70166 732.470459 C 1131.559937 731.958435 1135.291626 731.044434 1138.858521 729.7276 C 1139.561646 729.468018 1140.245728 729.159363 1140.90564 728.803894 L 1148.146851 724.903015 C 1149.354248 724.252563 1150.473145 723.449524 1151.475708 722.513733 L 1156.947388 717.406799 C 1157.392578 716.991272 1157.813721 716.550659 1158.20874 716.087097 C 1163.317749 710.091187 1167.321533 702.433167 1169.966675 693.499451 Z"/>
            </g>
        </g>
        <path id="path3" fill="#00a9a3" fill-rule="evenodd" stroke="none" d="M 1106.799805 567.896973 C 1095.404297 573.023926 1084.931641 579.84375 1075.706055 588.037109 C 1079.87793 605.989258 1088.488281 619.008789 1103.639648 624.760742 C 1107.097656 621.399902 1110.87207 618.362793 1114.913086 615.698242 C 1117.293945 635.146973 1118.167969 652.296875 1117.123047 665.410156 C 1116.882813 668.425781 1116.199219 671.957031 1115.576172 674.72998 C 1115.000977 674.552734 1114.445313 674.361816 1113.957031 674.164063 C 1107.486328 671.53125 1100.291992 666.983887 1092.759766 661.378906 C 1080.373047 652.161133 1067.355469 640.124023 1055.453125 627.542969 C 1039.945313 611.147949 1026.299805 593.850098 1018.776367 580.536133 L 1018.435547 579.957031 C 1008.053711 562.910156 991.405273 550.608887 972.060547 545.691895 L 972.038086 545.686035 C 821.417969 507.580078 806.408203 438.969727 805.53125 424.144043 C 805.53418 423.266113 805.525391 422.37793 805.501953 421.493164 C 805.513672 421.955078 805.509766 422.415039 805.491211 422.873047 L 805.472656 422.891113 C 805.375 417.956055 802.726563 373.308105 781.385742 339.643066 C 780.054688 337.542969 767.876953 318.333008 759.21582 317.856934 C 755.15918 317.633789 754.956055 317.662109 751.94043 320.37793 C 748.882813 323.131836 749.148438 331.742188 751.666992 335.435059 C 764.884766 354.814941 768.142578 385.132813 765.552734 412.418945 C 764.84375 419.89209 764.541016 423.390137 764.303711 427.020996 C 762.560547 453.74707 741.842773 482.523926 741.842773 482.523926 C 739.760742 485.508789 738.508789 488.994141 738.213867 492.621094 C 738.213867 492.621094 736.175781 519.327148 742.84668 540.867188 C 749.314453 561.75293 763.263672 577.323242 785.899414 577.771973 C 801.574219 578.083008 834.050781 591.25 870.473633 616.799805 C 942.421875 667.27002 1026.083008 766.964844 1030.258789 927.350098 C 1023.045898 931.885742 1018.75293 934.674805 1018.75293 934.674805 C 1018.75293 934.674805 982.227539 762.65918 956.169922 762.65918 C 930.113281 762.65918 893.587891 934.674805 893.587891 934.674805 C 893.587891 934.674805 746.126953 838.868164 727.701172 857.293945 C 709.276367 875.71875 805.083008 1023.180176 805.083008 1023.180176 C 805.083008 1023.180176 633.066406 1059.705078 633.066406 1085.762695 C 633.066406 1111.821289 805.083008 1148.345703 805.083008 1148.345703 C 805.083008 1148.345703 709.276367 1295.807129 727.701172 1314.231934 C 746.126953 1332.658203 893.587891 1236.851074 893.587891 1236.851074 C 893.587891 1236.851074 896.064453 1248.512695 900.186523 1265.76416 C 824.871094 1326.702148 724.464844 1346.418945 620.177734 1340.365234 C 437.703125 1329.771973 242.972656 1241.774902 142.336914 1152.418945 C 92.016602 1107.739258 67.807617 1062.858887 62.331055 1023.243164 C 56.542969 981.384766 72.222656 946.26416 98.243164 927.556152 C 123.103516 909.681152 157.115234 907.742188 188.217773 929.383789 C 214.351563 947.567871 277.021484 1007.605957 277.021484 1007.605957 C 284.666992 1014.912109 296.608398 1015.224121 304.625 1008.328125 C 312.642578 1001.432129 314.120117 989.579102 308.040039 980.925781 C 275.09082 934.038086 261.452148 839.145996 319.438477 776.736816 C 323.797852 772.043945 325.720703 765.586914 324.638672 759.273926 C 323.556641 752.959961 319.59375 747.512207 313.920898 744.538086 C 279.182617 726.333008 236.258789 683.421875 217.62207 652.10791 C 189.929688 605.583008 161.369141 554.48584 186.757813 492.63916 C 192.280273 479.187988 200.790039 469.856934 209.893555 463.760742 C 269.246094 437.440918 308.397461 487.500977 321.508789 521.605957 C 322.804688 524.977051 333.541992 564.621094 374.879883 596.348145 C 420.521484 631.378906 461.200195 629.431152 467.68457 629.35498 C 545.760742 628.437012 620.613281 602.967773 642.419922 594.077148 C 647.174805 592.138184 647.883789 592.535156 649.887695 587.816895 C 651.486328 584.054199 651.509766 583.852051 649.97168 580.075195 C 649.498047 578.912109 646.291992 571.039063 635.082031 575.101074 C 627.151367 577.974121 617.320313 580.84082 615.761719 581.295898 C 535.962891 604.565918 476.503906 602.422852 464.280273 601.98291 C 422.673828 600.48291 370.761719 565.106934 355.786133 516.648926 C 333.957031 446.016113 274.367188 401.612793 205.681641 421.891113 C 205.430664 421.254883 205.209961 420.624023 205.049805 420.041992 C 203.583008 414.731934 202.901367 408.441895 202.791992 401.662109 C 202.371094 375.660156 209.847656 342.379883 225.069336 325.804199 C 228.898438 325.529785 241.389648 324.490234 252.811523 321.90625 C 230.660156 332.277832 248.285156 355.397949 275.426758 343.589844 L 303.611328 330.651855 L 327.791992 347.592773 C 332.611328 352.411133 340.424805 352.40918 345.244141 347.589844 C 350.063477 342.771973 350.06543 334.957031 345.246094 330.138184 L 328.305664 305.957031 L 341.244141 277.772949 C 350.591797 253.298828 332.933594 237.35791 320.878906 259.445801 L 319.90918 261.200195 C 350.52832 196.811035 394.125977 174.186035 425.928711 171.201172 C 435.496094 170.303223 443.165039 162.895996 444.394531 153.365234 C 444.394531 153.365234 449.623047 115.193848 482.969727 87.887207 C 521.404297 56.414063 593.103516 45.353027 698.025391 90.842773 C 750.957031 113.791992 829.423828 150.25 895.816406 146.356934 C 905.693359 145.777832 913.621094 146.00293 919.804688 147.078125 C 920.378906 147.176758 920.982422 147.312012 921.580078 147.464844 C 918.204102 152.147949 912.072266 160.080078 905.701172 165.455078 C 885.077148 182.855957 853.568359 200.082031 822.048828 208.814941 C 756.896484 206.022949 736.68457 225.763184 723.912109 234.975098 C 707.332031 215.041016 668.399414 173.939941 624.05957 167.207031 C 622.839844 167.021973 612.586914 165.464844 610.90332 175.25 C 610.697266 176.446777 609.297852 184.575195 620.232422 187.224121 C 622.37207 187.743164 632.723633 190.250977 645.428711 198.312988 C 680.583008 220.621094 711.90918 271.691895 711.90918 271.691895 C 711.90918 271.691895 713.993164 276.006836 723.365234 269.811035 C 745.74707 255.015137 749.455078 240.880859 817.321289 249.265137 C 818.763672 249.442871 820.03125 249.62793 821.165039 249.794922 L 821.47168 249.84082 C 822.394531 249.977051 823.226563 250.101074 823.992188 250.201172 C 953.692383 269.019043 991.055664 322.442871 1043.666992 398.666992 C 1071.338867 438.757813 1093.570313 505.204102 1106.268555 564.876953 L 1106.799805 567.896973 Z M 383.361328 427.544922 L 351.09668 454.60498 C 342.679688 459.463867 339.797852 470.230957 344.658203 478.647949 C 349.516602 487.064941 360.283203 489.953125 368.700195 485.09375 L 408.265625 470.682129 L 435.326172 502.945801 C 440.185547 511.362793 450.953125 514.245117 459.370117 509.384766 C 467.787109 504.525879 470.674805 493.760742 465.81543 485.342773 L 451.40332 445.776855 L 483.667969 418.716797 C 492.084961 413.856934 494.966797 403.089844 490.107422 394.672852 C 485.24707 386.255859 474.482422 383.368164 466.06543 388.228027 L 426.498047 402.640137 L 399.438477 370.375 C 394.579102 361.958008 383.811523 359.077148 375.394531 363.936035 C 366.977539 368.795898 364.089844 379.561035 368.949219 387.978027 L 383.361328 427.544922 Z"/>
    </g>
</svg>
