<?xml version="1.0" encoding="UTF-8"?>
<!-- Generated by Pixelmator Pro 3.6.14 -->
<svg width="1780" height="1778" viewBox="0 0 1780 1778" xmlns="http://www.w3.org/2000/svg">
    <g id="Group">
        <path id="IG-Highlight---Availability-Mono" fill="#cb3f8d" fill-rule="evenodd" stroke="none" d="M 0.099609 -0.149902 L 1777.880859 -0.149902 L 1777.880859 1777.629883 L 0.099609 1777.629883 Z"/>
        <clipPath id="clipPath1">
            <path clip-rule="evenodd" d="M 0.099609 -0.149902 L 1777.880859 -0.149902 L 1777.880859 1777.629883 L 0.099609 1777.629883 Z"/>
        </clipPath>
        <g id="g1" clip-path="url(#clipPath1)">
            <g id="g2">
                <path id="Path" fill="#020050" fill-rule="evenodd" stroke="#020050" stroke-width="76.669998" stroke-linecap="round" stroke-linejoin="round" d="M 184.300781 695.140137 L 120.306641 443.193848 L 1352.455078 130.227051 L 1416.449219 382.172852 L 184.300781 695.140137 Z"/>
                <path id="path1" fill="#cb3f8d" fill-rule="evenodd" stroke="#020050" stroke-width="76.669998" stroke-linecap="round" stroke-linejoin="round" d="M 1416.400391 382.169922 L 1657.654297 1331.994141 L 425.503906 1644.959961 L 184.248047 695.137207 L 1416.398438 382.169922 Z"/>
            </g>
            <path id="path2" fill="#020050" fill-rule="evenodd" stroke="none" d="M 0.099609 888.740234 L 0.099609 -0.148926 L 888.988281 -0.148926 C 398.398438 -0.148926 0.099609 398.148926 0.099609 888.740234 Z M 888.988281 -0.148926 L 1777.878906 -0.148926 L 1777.878906 888.740234 C 1777.878906 398.148926 1379.580078 -0.148926 888.988281 -0.148926 Z M 1777.878906 888.740234 L 1777.878906 1777.628906 L 888.988281 1777.628906 C 1379.580078 1777.628906 1777.878906 1379.331055 1777.878906 888.740234 Z M 888.988281 1777.628906 L 0.099609 1777.628906 L 0.099609 888.740234 C 0.099609 1379.331055 398.398438 1777.628906 888.988281 1777.628906 Z"/>
        </g>
    </g>
</svg>
